<svg version="1.1" xmlns="http://www.w3.org/2000/svg" viewBox="0 0 325.91425868443093 148.11433846609935" width="325.91425868443093" height="148.11433846609935"><!-- svg-source:excalidraw --><metadata></metadata><defs><style class="style-fonts">
      </style></defs><g stroke-linecap="round" transform="translate(175.57139805385054 10) rotate(0 70.1714303152902 64.05714743477958)"><path d="M32 0 C52.16 1.74, 75.82 0.84, 108.34 0 M32 0 C60.27 0.84, 88 0.34, 108.34 0 M108.34 0 C129.68 -0.98, 139.16 11.12, 140.34 32 M108.34 0 C130.33 0.39, 139.76 10.62, 140.34 32 M140.34 32 C141.97 51.16, 139.64 67.59, 140.34 96.11 M140.34 32 C140.05 51.06, 139.74 68.99, 140.34 96.11 M140.34 96.11 C139.72 119.19, 130.16 127.51, 108.34 128.11 M140.34 96.11 C138.27 118.94, 130.51 130.06, 108.34 128.11 M108.34 128.11 C89.01 129.91, 72.54 130.3, 32 128.11 M108.34 128.11 C80.27 128.96, 52.87 128.61, 32 128.11 M32 128.11 C11.39 126.74, 0.66 118.44, 0 96.11 M32 128.11 C11.16 129.06, -0.23 118.26, 0 96.11 M0 96.11 C-2.07 77.58, -1.21 59.17, 0 32 M0 96.11 C-0.17 82.95, -0.77 68.25, 0 32 M0 32 C-1.67 11.68, 9.56 1, 32 0 M0 32 C-0.82 9.34, 8.82 -1.2, 32 0" stroke="#1e1e1e" stroke-width="4" fill="none"></path></g><g stroke-linecap="round" transform="translate(10 10.000043596540195) rotate(0 70.1714303152902 64.05714743477958)"><path d="M32 0 C54.29 -0.21, 73.23 1.15, 108.34 0 M32 0 C53.08 1.61, 75.44 0.13, 108.34 0 M108.34 0 C131 0.38, 138.6 12.14, 140.34 32 M108.34 0 C129.72 0.05, 141.06 12.69, 140.34 32 M140.34 32 C139.96 52.33, 139.13 74.81, 140.34 96.11 M140.34 32 C140.94 47.93, 140.18 61.92, 140.34 96.11 M140.34 96.11 C138.63 115.47, 128.77 126.3, 108.34 128.11 M140.34 96.11 C141.96 115.93, 131.5 128.88, 108.34 128.11 M108.34 128.11 C78.96 128.54, 50.19 128.47, 32 128.11 M108.34 128.11 C81.16 126.79, 55.18 127.92, 32 128.11 M32 128.11 C9.73 129.61, -0.8 117.12, 0 96.11 M32 128.11 C12.81 126.51, 1.63 117.9, 0 96.11 M0 96.11 C0.48 80.24, -0.39 68.53, 0 32 M0 96.11 C-0.35 80.37, 0.92 64.24, 0 32 M0 32 C-1.34 9.89, 10.44 0.79, 32 0 M0 32 C-2.28 9.44, 9.87 0.16, 32 0" stroke="#1e1e1e" stroke-width="4" fill="none"></path></g></svg>