<svg version="1.1" xmlns="http://www.w3.org/2000/svg" viewBox="0 0 328.2000252859933 304.4000876290459" width="328.2000252859933" height="304.4000876290459"><!-- svg-source:excalidraw --><metadata></metadata><defs><style class="style-fonts">
      </style></defs><g stroke-linecap="round" transform="translate(175.57139805385054 10) rotate(0 70.1714303152902 64.05714743477958)"><path d="M32 0 C52.16 1.74, 75.82 0.84, 108.34 0 M32 0 C60.27 0.84, 88 0.34, 108.34 0 M108.34 0 C129.68 -0.98, 139.16 11.12, 140.34 32 M108.34 0 C130.33 0.39, 139.76 10.62, 140.34 32 M140.34 32 C141.97 51.16, 139.64 67.59, 140.34 96.11 M140.34 32 C140.05 51.06, 139.74 68.99, 140.34 96.11 M140.34 96.11 C139.72 119.19, 130.16 127.51, 108.34 128.11 M140.34 96.11 C138.27 118.94, 130.51 130.06, 108.34 128.11 M108.34 128.11 C89.01 129.91, 72.54 130.3, 32 128.11 M108.34 128.11 C80.27 128.96, 52.87 128.61, 32 128.11 M32 128.11 C11.39 126.74, 0.66 118.44, 0 96.11 M32 128.11 C11.16 129.06, -0.23 118.26, 0 96.11 M0 96.11 C-2.07 77.58, -1.21 59.17, 0 32 M0 96.11 C-0.17 82.95, -0.77 68.25, 0 32 M0 32 C-1.67 11.68, 9.56 1, 32 0 M0 32 C-0.82 9.34, 8.82 -1.2, 32 0" stroke="#1e1e1e" stroke-width="4" fill="none"></path></g><g stroke-linecap="round" transform="translate(177.85716465541293 165.99998256138412) rotate(0 70.1714303152902 64.05714743477958)"><path d="M32 0 C51.78 0.12, 71.7 -0.72, 108.34 0 M32 0 C61.09 -0.51, 88.3 0, 108.34 0 M108.34 0 C129.55 -0.66, 140.29 10.34, 140.34 32 M108.34 0 C131.09 -2.04, 139.14 8.55, 140.34 32 M140.34 32 C140.62 44.2, 140.37 59.37, 140.34 96.11 M140.34 32 C139.42 52.31, 140.3 74.91, 140.34 96.11 M140.34 96.11 C140.36 118.84, 128.81 129.82, 108.34 128.11 M140.34 96.11 C142.4 118.61, 129.6 128.86, 108.34 128.11 M108.34 128.11 C85.67 128.66, 60.65 129.78, 32 128.11 M108.34 128.11 C77.32 127.48, 47.99 128.64, 32 128.11 M32 128.11 C11.28 128.25, 1.86 115.7, 0 96.11 M32 128.11 C11.57 129.58, -0.41 117.65, 0 96.11 M0 96.11 C-0.32 83.66, -1.18 69.09, 0 32 M0 96.11 C-0.41 80.7, 1.3 63.6, 0 32 M0 32 C-0.22 12.36, 10.92 -0.91, 32 0 M0 32 C-0.49 10.95, 12.8 -0.92, 32 0" stroke="#1e1e1e" stroke-width="4" fill="none"></path></g><g stroke-linecap="round" transform="translate(10 10.000043596540195) rotate(0 70.1714303152902 64.05714743477958)"><path d="M32 0 C54.29 -0.21, 73.23 1.15, 108.34 0 M32 0 C53.08 1.61, 75.44 0.13, 108.34 0 M108.34 0 C131 0.38, 138.6 12.14, 140.34 32 M108.34 0 C129.72 0.05, 141.06 12.69, 140.34 32 M140.34 32 C139.96 52.33, 139.13 74.81, 140.34 96.11 M140.34 32 C140.94 47.93, 140.18 61.92, 140.34 96.11 M140.34 96.11 C138.63 115.47, 128.77 126.3, 108.34 128.11 M140.34 96.11 C141.96 115.93, 131.5 128.88, 108.34 128.11 M108.34 128.11 C78.96 128.54, 50.19 128.47, 32 128.11 M108.34 128.11 C81.16 126.79, 55.18 127.92, 32 128.11 M32 128.11 C9.73 129.61, -0.8 117.12, 0 96.11 M32 128.11 C12.81 126.51, 1.63 117.9, 0 96.11 M0 96.11 C0.48 80.24, -0.39 68.53, 0 32 M0 96.11 C-0.35 80.37, 0.92 64.24, 0 32 M0 32 C-1.34 9.89, 10.44 0.79, 32 0 M0 32 C-2.28 9.44, 9.87 0.16, 32 0" stroke="#1e1e1e" stroke-width="4" fill="none"></path></g><g stroke-linecap="round" transform="translate(11.714324951171932 166.28579275948675) rotate(0 70.1714303152902 64.05714743477958)"><path d="M32 0 C55.39 -0.46, 80.79 -0.93, 108.34 0 M32 0 C58.94 1.29, 86.24 -0.01, 108.34 0 M108.34 0 C129.25 0.24, 142.2 9.86, 140.34 32 M108.34 0 C131.04 1.95, 142.34 8.54, 140.34 32 M140.34 32 C141.33 51.16, 140.73 68.22, 140.34 96.11 M140.34 32 C140.18 48.45, 140.13 65.82, 140.34 96.11 M140.34 96.11 C139.6 118.06, 128.78 129.74, 108.34 128.11 M140.34 96.11 C139.07 118.72, 131.49 126.5, 108.34 128.11 M108.34 128.11 C82.04 129.04, 56 128.01, 32 128.11 M108.34 128.11 C86.62 129.26, 66.72 129.51, 32 128.11 M32 128.11 C8.97 128.02, 0.4 117.55, 0 96.11 M32 128.11 C12.79 129.45, -0.07 118.78, 0 96.11 M0 96.11 C-1.82 76.58, 0.32 59.67, 0 32 M0 96.11 C0.56 79.23, 1.05 61.53, 0 32 M0 32 C0.3 12.44, 11.59 1.36, 32 0 M0 32 C2.29 12.35, 11.5 -2.14, 32 0" stroke="#1e1e1e" stroke-width="4" fill="none"></path></g></svg>