<svg version="1.1" xmlns="http://www.w3.org/2000/svg" viewBox="0 0 351.8000183105469 323.60001373291016" width="351.8000183105469" height="323.60001373291016"><!-- svg-source:excalidraw --><metadata></metadata><defs><style class="style-fonts">
      </style></defs><g stroke-linecap="round" transform="translate(10 10) rotate(0 45.600006103515625 41.20000457763672)"><path d="M20.6 0 C29.82 1.7, 41.88 -1, 70.6 0 M20.6 0 C40.38 0.91, 59.65 0.05, 70.6 0 M70.6 0 C82.62 -0.22, 92.51 6.34, 91.2 20.6 M70.6 0 C82.73 1.85, 90.39 5.43, 91.2 20.6 M91.2 20.6 C89.46 38.17, 89.49 50.51, 91.2 61.8 M91.2 20.6 C91.21 30.13, 90.66 38.55, 91.2 61.8 M91.2 61.8 C90.53 74.66, 85.25 81.1, 70.6 82.4 M91.2 61.8 C92.78 76.01, 82.15 80.22, 70.6 82.4 M70.6 82.4 C54.04 82.22, 39.19 81.65, 20.6 82.4 M70.6 82.4 C55.63 81.48, 41.22 83.07, 20.6 82.4 M20.6 82.4 C8.54 82.07, -1.57 73.62, 0 61.8 M20.6 82.4 C5.89 80.48, 1.13 74.5, 0 61.8 M0 61.8 C0.47 48.72, -0.68 32.1, 0 20.6 M0 61.8 C-0.76 45.74, 0.13 29.76, 0 20.6 M0 20.6 C-0.47 5.29, 7.68 0.71, 20.6 0 M0 20.6 C-0.6 8.86, 9.02 -1.62, 20.6 0" stroke="#1e1e1e" stroke-width="4" fill="none"></path></g><g stroke-linecap="round" transform="translate(131.39999389648438 11.999977111816406) rotate(0 45.600006103515625 41.20000457763672)"><path d="M20.6 0 C30.81 -1.44, 43.19 0.35, 70.6 0 M20.6 0 C34.42 0.75, 47.17 1.26, 70.6 0 M70.6 0 C86.21 -1.41, 91.61 4.96, 91.2 20.6 M70.6 0 C82.67 -1.4, 93.18 5.74, 91.2 20.6 M91.2 20.6 C92.02 28.34, 90.11 36.94, 91.2 61.8 M91.2 20.6 C90.51 31.52, 90.92 43.11, 91.2 61.8 M91.2 61.8 C91.71 74.39, 82.82 81.3, 70.6 82.4 M91.2 61.8 C91.69 74.86, 83.52 83.33, 70.6 82.4 M70.6 82.4 C53.02 83.39, 35.09 82.31, 20.6 82.4 M70.6 82.4 C55 83.04, 40.64 81.88, 20.6 82.4 M20.6 82.4 C8.64 83.75, 0.04 77.28, 0 61.8 M20.6 82.4 C5.59 80.29, -1.97 76.24, 0 61.8 M0 61.8 C1.84 48.1, 1.19 36.31, 0 20.6 M0 61.8 C0.31 45.44, 1 30.21, 0 20.6 M0 20.6 C0.95 5.22, 5.25 -0.23, 20.6 0 M0 20.6 C1.25 4.8, 8.56 -1.35, 20.6 0" stroke="#1e1e1e" stroke-width="4" fill="none"></path></g><g stroke-linecap="round" transform="translate(250.60000610351562 11.199958801269531) rotate(0 45.600006103515625 41.20000457763672)"><path d="M20.6 0 C39.91 2.17, 59.62 1.35, 70.6 0 M20.6 0 C34.25 0.76, 45.89 -0.54, 70.6 0 M70.6 0 C83.84 1.12, 89.98 6.03, 91.2 20.6 M70.6 0 C82.43 0.96, 89.06 7.62, 91.2 20.6 M91.2 20.6 C90.75 33.97, 91.94 47.74, 91.2 61.8 M91.2 20.6 C91.82 34.12, 91.91 47.3, 91.2 61.8 M91.2 61.8 C91.36 73.83, 84.8 83.65, 70.6 82.4 M91.2 61.8 C90.58 74.62, 83.7 83.85, 70.6 82.4 M70.6 82.4 C62.01 81.99, 49.1 83.93, 20.6 82.4 M70.6 82.4 C56.4 82.84, 43.78 81.58, 20.6 82.4 M20.6 82.4 C6.22 82.36, 1.97 74.55, 0 61.8 M20.6 82.4 C6.14 84.39, 2.04 74.6, 0 61.8 M0 61.8 C-2.04 46.6, 0.03 30.28, 0 20.6 M0 61.8 C0.77 52.7, 0.38 45.12, 0 20.6 M0 20.6 C-1.55 5.06, 6.15 1.55, 20.6 0 M0 20.6 C-0.11 4.93, 9.16 -1.18, 20.6 0" stroke="#1e1e1e" stroke-width="4" fill="none"></path></g><g stroke-linecap="round" transform="translate(10 119.5999984741211) rotate(0 45.600006103515625 41.20000457763672)"><path d="M20.6 0 C35 -0.32, 54.57 0.29, 70.6 0 M20.6 0 C30.46 -0.31, 42.11 -0.19, 70.6 0 M70.6 0 C83.97 1.56, 90.27 8.57, 91.2 20.6 M70.6 0 C83 -0.41, 89.85 8.03, 91.2 20.6 M91.2 20.6 C91.02 33.25, 91.84 47.48, 91.2 61.8 M91.2 20.6 C92.16 32.87, 91.58 42.54, 91.2 61.8 M91.2 61.8 C91.94 74.86, 84.13 82.31, 70.6 82.4 M91.2 61.8 C92.12 76.45, 82.98 80.5, 70.6 82.4 M70.6 82.4 C53.34 81.12, 34.58 83.27, 20.6 82.4 M70.6 82.4 C50.34 82.16, 31.3 82.42, 20.6 82.4 M20.6 82.4 C7.09 81.31, -1.68 77.29, 0 61.8 M20.6 82.4 C7.6 83.24, 1.1 75.99, 0 61.8 M0 61.8 C0.29 45.36, -1.07 29, 0 20.6 M0 61.8 C-1.09 51.57, -1.01 42.53, 0 20.6 M0 20.6 C-1.27 5.56, 7.13 1.31, 20.6 0 M0 20.6 C-2.17 5.77, 4.96 0.06, 20.6 0" stroke="#1e1e1e" stroke-width="4" fill="none"></path></g><g stroke-linecap="round" transform="translate(10.79998779296875 230.40001678466797) rotate(0 45.600006103515625 41.20000457763672)"><path d="M20.6 0 C38.95 0.21, 58.17 -1.11, 70.6 0 M20.6 0 C35.6 -0.67, 49.63 -0.08, 70.6 0 M70.6 0 C83.26 1.36, 89.65 6.6, 91.2 20.6 M70.6 0 C84.39 -0.82, 89.46 7.72, 91.2 20.6 M91.2 20.6 C91.6 36.78, 90.78 52.54, 91.2 61.8 M91.2 20.6 C91.15 29.1, 92.04 38.29, 91.2 61.8 M91.2 61.8 C91.91 76.26, 85.95 81.84, 70.6 82.4 M91.2 61.8 C91.12 76.43, 82.93 80.13, 70.6 82.4 M70.6 82.4 C57.97 80.48, 47.45 83.55, 20.6 82.4 M70.6 82.4 C53.16 82.12, 36.35 82.39, 20.6 82.4 M20.6 82.4 C5.27 84.2, -1.73 76.27, 0 61.8 M20.6 82.4 C5.24 81.28, 0.45 77.75, 0 61.8 M0 61.8 C0.3 45.82, -1.46 32.36, 0 20.6 M0 61.8 C-0.24 51.33, 0.1 41.7, 0 20.6 M0 20.6 C-1.2 5.1, 6.73 0.3, 20.6 0 M0 20.6 C-0.79 8.6, 6.45 0.62, 20.6 0" stroke="#1e1e1e" stroke-width="4" fill="none"></path></g><g stroke-linecap="round" transform="translate(131.40008544921875 121.1999740600586) rotate(0 45.600006103515625 41.20000457763672)"><path d="M20.6 0 C37.96 2.12, 54.71 -1.35, 70.6 0 M20.6 0 C36.66 -0.19, 52.8 0.77, 70.6 0 M70.6 0 C85.31 0.4, 92.52 6.93, 91.2 20.6 M70.6 0 C86.51 -0.55, 89.47 6.99, 91.2 20.6 M91.2 20.6 C90.95 31.43, 90.87 41.08, 91.2 61.8 M91.2 20.6 C90.93 30.51, 92.28 38.09, 91.2 61.8 M91.2 61.8 C90.78 74.86, 83.72 82.11, 70.6 82.4 M91.2 61.8 C90.46 75.49, 85.14 84.59, 70.6 82.4 M70.6 82.4 C56.64 82.04, 42.41 81.6, 20.6 82.4 M70.6 82.4 C60.1 83.39, 50.99 82.38, 20.6 82.4 M20.6 82.4 C7.77 80.66, 0.71 74.24, 0 61.8 M20.6 82.4 C4.57 82.03, -1.2 76.59, 0 61.8 M0 61.8 C2.24 45.75, 1.01 32.95, 0 20.6 M0 61.8 C0.74 45.28, 0.27 31.38, 0 20.6 M0 20.6 C-1.01 5.96, 7.41 -1.61, 20.6 0 M0 20.6 C-0.62 8.31, 7.42 0.93, 20.6 0" stroke="#1e1e1e" stroke-width="4" fill="none"></path></g><g stroke-linecap="round" transform="translate(130.60000610351562 231.20000457763672) rotate(0 45.600006103515625 41.20000457763672)"><path d="M20.6 0 C32.94 2.17, 44.42 -0.92, 70.6 0 M20.6 0 C33.05 0.75, 46.16 -0.12, 70.6 0 M70.6 0 C83.94 -1.14, 92.4 8.5, 91.2 20.6 M70.6 0 C84.18 2.14, 92.99 8.48, 91.2 20.6 M91.2 20.6 C90.5 30.35, 92.2 40.11, 91.2 61.8 M91.2 20.6 C90.75 30.63, 90.36 40.53, 91.2 61.8 M91.2 61.8 C91.11 74.77, 85.1 84.37, 70.6 82.4 M91.2 61.8 C91.84 75.47, 85.22 83.63, 70.6 82.4 M70.6 82.4 C56.51 82.97, 41.08 82.16, 20.6 82.4 M70.6 82.4 C56.81 81.98, 40.76 83.62, 20.6 82.4 M20.6 82.4 C6.31 83.38, 0.91 74.53, 0 61.8 M20.6 82.4 C6.24 80.45, -0.55 75.99, 0 61.8 M0 61.8 C1.28 51.51, -0.43 42.59, 0 20.6 M0 61.8 C1.1 46.26, 0.57 30.47, 0 20.6 M0 20.6 C-0.99 5.74, 7.33 0.33, 20.6 0 M0 20.6 C1.36 5.22, 4.65 -2, 20.6 0" stroke="#1e1e1e" stroke-width="4" fill="none"></path></g><g stroke-linecap="round" transform="translate(250.5999755859375 123.1999740600586) rotate(0 45.600006103515625 41.20000457763672)"><path d="M20.6 0 C35.62 0.03, 51.15 -0.86, 70.6 0 M20.6 0 C39.11 -0.97, 55.96 0.14, 70.6 0 M70.6 0 C85.58 -0.49, 90.98 6.71, 91.2 20.6 M70.6 0 C83.6 1.49, 90.56 5.59, 91.2 20.6 M91.2 20.6 C92.15 31.3, 92.06 39.98, 91.2 61.8 M91.2 20.6 C90.38 31.6, 90.54 43.83, 91.2 61.8 M91.2 61.8 C92.53 73.63, 86.16 81.57, 70.6 82.4 M91.2 61.8 C91.5 73.51, 82.56 83.42, 70.6 82.4 M70.6 82.4 C50.56 82.66, 30.98 80.87, 20.6 82.4 M70.6 82.4 C60.46 81.12, 50.5 81.34, 20.6 82.4 M20.6 82.4 C6.47 84.18, -1.18 74.82, 0 61.8 M20.6 82.4 C5.25 83.48, 0.73 73.6, 0 61.8 M0 61.8 C-2.22 48.48, -2.27 33.39, 0 20.6 M0 61.8 C-0.13 48.88, -1.27 34.21, 0 20.6 M0 20.6 C-0.08 7.01, 8.16 -1.22, 20.6 0 M0 20.6 C-1.5 7.8, 8.41 1.41, 20.6 0" stroke="#1e1e1e" stroke-width="4" fill="none"></path></g><g stroke-linecap="round" transform="translate(249.80007934570312 231.1999740600586) rotate(0 45.600006103515625 41.20000457763672)"><path d="M20.6 0 C38.93 2.16, 57.85 0.47, 70.6 0 M20.6 0 C33.58 0.07, 46.92 0.11, 70.6 0 M70.6 0 C84.87 1.14, 92.13 6.09, 91.2 20.6 M70.6 0 C85.44 0.08, 89.26 7.03, 91.2 20.6 M91.2 20.6 C91.87 27.72, 93.43 40.25, 91.2 61.8 M91.2 20.6 C91.79 31.82, 91.52 44.2, 91.2 61.8 M91.2 61.8 C90.73 74.88, 82.67 81.06, 70.6 82.4 M91.2 61.8 C89.26 75.11, 83.87 83.37, 70.6 82.4 M70.6 82.4 C59.8 83.72, 48.1 84.4, 20.6 82.4 M70.6 82.4 C58.05 82.56, 44.62 83.52, 20.6 82.4 M20.6 82.4 C5.21 83.25, 0.73 74.02, 0 61.8 M20.6 82.4 C7.3 81.99, 1.56 73.88, 0 61.8 M0 61.8 C0.16 53.18, 0.54 44.76, 0 20.6 M0 61.8 C0.13 48.45, -0.15 34.52, 0 20.6 M0 20.6 C0.81 8.79, 8.25 -0.6, 20.6 0 M0 20.6 C-0.35 7.32, 5.93 -1.87, 20.6 0" stroke="#1e1e1e" stroke-width="4" fill="none"></path></g></svg>