<svg version="1.1" xmlns="http://www.w3.org/2000/svg" viewBox="0 0 160.3428606305804 148.11429486955916" width="160.3428606305804" height="148.11429486955916"><!-- svg-source:excalidraw --><metadata></metadata><defs><style class="style-fonts">
      </style></defs><g stroke-linecap="round" transform="translate(10 10) rotate(0 70.1714303152902 64.05714743477958)"><path d="M32 0 C54.29 -0.21, 73.23 1.15, 108.34 0 M32 0 C53.08 1.61, 75.44 0.13, 108.34 0 M108.34 0 C131 0.38, 138.6 12.14, 140.34 32 M108.34 0 C129.72 0.05, 141.06 12.69, 140.34 32 M140.34 32 C139.96 52.33, 139.13 74.81, 140.34 96.11 M140.34 32 C140.94 47.93, 140.18 61.92, 140.34 96.11 M140.34 96.11 C138.63 115.47, 128.77 126.3, 108.34 128.11 M140.34 96.11 C141.96 115.93, 131.5 128.88, 108.34 128.11 M108.34 128.11 C78.96 128.54, 50.19 128.47, 32 128.11 M108.34 128.11 C81.16 126.79, 55.18 127.92, 32 128.11 M32 128.11 C9.73 129.61, -0.8 117.12, 0 96.11 M32 128.11 C12.81 126.51, 1.63 117.9, 0 96.11 M0 96.11 C0.48 80.24, -0.39 68.53, 0 32 M0 96.11 C-0.35 80.37, 0.92 64.24, 0 32 M0 32 C-1.34 9.89, 10.44 0.79, 32 0 M0 32 C-2.28 9.44, 9.87 0.16, 32 0" stroke="#1e1e1e" stroke-width="4" fill="none"></path></g></svg>