<svg version="1.1" xmlns="http://www.w3.org/2000/svg" viewBox="0 0 71.50436906413074 62.90200956365476" width="71.50436906413074" height="62.90200956365476"><!-- svg-source:excalidraw --><metadata></metadata><defs><style class="style-fonts">
      </style></defs><g stroke-linecap="round" transform="translate(10 10) rotate(0 25.75218453206537 21.45100478182738)"><path d="M10.73 0 C19.98 -0.56, 25.89 0.79, 40.78 0 M10.73 0 C18.67 1.19, 27.9 -0.3, 40.78 0 M40.78 0 C49.25 0.38, 49.76 5.05, 51.5 10.73 M40.78 0 C47.98 0.05, 52.22 5.6, 51.5 10.73 M51.5 10.73 C51.33 16.21, 50.5 23.85, 51.5 32.18 M51.5 10.73 C52.28 16.55, 51.53 20.44, 51.5 32.18 M51.5 32.18 C49.79 37.35, 47.03 41.09, 40.78 42.9 M51.5 32.18 C53.13 37.81, 49.76 43.67, 40.78 42.9 M40.78 42.9 C29.17 43.44, 18.17 43.38, 10.73 42.9 M40.78 42.9 C29.63 41.81, 19.68 42.94, 10.73 42.9 M10.73 42.9 C2.64 44.4, -0.8 39, 0 32.18 M10.73 42.9 C5.72 41.3, 1.63 39.78, 0 32.18 M0 32.18 C0.59 26.03, -0.28 24.04, 0 10.73 M0 32.18 C-0.36 27.13, 0.91 21.68, 0 10.73 M0 10.73 C-1.34 2.8, 3.34 0.79, 10.73 0 M0 10.73 C-2.28 2.35, 2.77 0.16, 10.73 0" stroke="#1e1e1e" stroke-width="4" fill="none"></path></g></svg>